<?xml version="1.0" encoding="UTF-8"?>
<svg width="70px" height="70px" viewBox="0 0 70 70" version="1.1" xmlns="http://www.w3.org/2000/svg" xmlns:xlink="http://www.w3.org/1999/xlink">
    <!-- Generator: Sketch 63.1 (92452) - https://sketch.com -->
    <title>web/svg/ic_flag_fr</title>
    <desc>Created with Sketch.</desc>
    <g id="Symbols" stroke="none" stroke-width="1" fill="none" fill-rule="evenodd">
        <g id="lang/F-G-H-I/French-fr">
            <g id="fr">
                <g id="flag-france" transform="translate(35.000000, 35.000000) rotate(90.000000) translate(-35.000000, -35.000000) translate(1.000000, 1.000000)">
                    <circle id="bg" fill="#435DB0" cx="34" cy="34" r="34"></circle>
                    <path d="M34,0 C52.7776815,0 68,15.2223185 68,34 C68,38.0988568 67.2746922,42.0283088 65.945421,45.6670118 L2.054579,45.6670118 C0.725307814,42.0283088 0,38.0988568 0,34 C0,15.2223185 15.2223185,0 34,0 Z" id="Combined-Shape" fill="#FFFFFF"></path>
                    <path d="M34,0 C48.6788247,0 61.1850354,9.30206643 65.945421,22.3329882 L2.054579,22.3329882 C6.8149646,9.30206643 19.3211753,0 34,0 Z" id="Combined-Shape" fill="#ED4C49"></path>
                </g>
                <g id="border" fill="#C5C5C2">
                    <path d="M35,0 C54.3299662,0 70,15.6700338 70,35 C70,54.3299662 54.3299662,70 35,70 C15.6700338,70 0,54.3299662 0,35 C0,15.6700338 15.6700338,0 35,0 Z M35,2 C16.7746033,2 2,16.7746033 2,35 C2,53.2253967 16.7746033,68 35,68 C53.2253967,68 68,53.2253967 68,35 C68,16.7746033 53.2253967,2 35,2 Z"></path>
                </g>
            </g>
        </g>
    </g>
</svg>