<?xml version="1.0" encoding="UTF-8"?>
<svg width="70px" height="70px" viewBox="0 0 70 70" version="1.1" xmlns="http://www.w3.org/2000/svg" xmlns:xlink="http://www.w3.org/1999/xlink">
    <!-- Generator: Sketch 63.1 (92452) - https://sketch.com -->
    <title>web/svg/ic_flag_de</title>
    <desc>Created with Sketch.</desc>
    <g id="Symbols" stroke="none" stroke-width="1" fill="none" fill-rule="evenodd">
        <g id="lang/F-G-H-I/German-de">
            <g id="de">
                <g id="flag-germay" transform="translate(1.000000, 1.000000)">
                    <path d="M34,0 C52.7776815,0 68,15.2223185 68,34 C68,52.7776815 52.7776815,68 34,68 C15.2223185,68 0,52.7776815 0,34 C0,15.2223185 15.2223185,0 34,0 Z" id="Combined-Shape" fill="#FFCE00"></path>
                    <path d="M34,-2.84217094e-14 C52.7776815,-2.84217094e-14 68,15.2223185 68,34 C68,38.0988568 67.2746922,42.0283088 65.945421,45.6670118 L2.054579,45.6670118 C0.725307814,42.0283088 0,38.0988568 0,34 C0,15.2223185 15.2223185,-2.84217094e-14 34,-2.84217094e-14 Z" id="Combined-Shape" fill="#DD0000"></path>
                    <path d="M34,-7.10542736e-15 C48.6788247,-7.10542736e-15 61.1850354,9.30206643 65.945421,22.3329882 L2.054579,22.3329882 C6.8149646,9.30206643 19.3211753,-7.10542736e-15 34,-7.10542736e-15 Z" id="Combined-Shape" fill="#000000"></path>
                </g>
                <g id="border" fill="#C5C5C2">
                    <path d="M35,0 C54.3299662,0 70,15.6700338 70,35 C70,54.3299662 54.3299662,70 35,70 C15.6700338,70 0,54.3299662 0,35 C0,15.6700338 15.6700338,0 35,0 Z M35,2 C16.7746033,2 2,16.7746033 2,35 C2,53.2253967 16.7746033,68 35,68 C53.2253967,68 68,53.2253967 68,35 C68,16.7746033 53.2253967,2 35,2 Z"></path>
                </g>
            </g>
        </g>
    </g>
</svg>