<?xml version="1.0" encoding="UTF-8"?>
<svg width="70px" height="70px" viewBox="0 0 70 70" version="1.1" xmlns="http://www.w3.org/2000/svg" xmlns:xlink="http://www.w3.org/1999/xlink">
    <!-- Generator: Sketch 63.1 (92452) - https://sketch.com -->
    <title>web/svg/ic_flag_ja</title>
    <desc>Created with Sketch.</desc>
    <g id="Symbols" stroke="none" stroke-width="1" fill="none" fill-rule="evenodd">
        <g id="lang/J-K-L/Japanese-ja">
            <g id="ja">
                <g id="flag-japan" transform="translate(1.000000, 1.000000)">
                    <circle id="bg" fill="#FFFFFF" cx="34" cy="34" r="34"></circle>
                    <circle id="circle" fill="#BD0536" cx="34" cy="34" r="14.4117647"></circle>
                </g>
                <g id="border" fill="#C5C5C2">
                    <path d="M35,0 C54.3299662,0 70,15.6700338 70,35 C70,54.3299662 54.3299662,70 35,70 C15.6700338,70 0,54.3299662 0,35 C0,15.6700338 15.6700338,0 35,0 Z M35,2 C16.7746033,2 2,16.7746033 2,35 C2,53.2253967 16.7746033,68 35,68 C53.2253967,68 68,53.2253967 68,35 C68,16.7746033 53.2253967,2 35,2 Z"></path>
                </g>
            </g>
        </g>
    </g>
</svg>