<?xml version="1.0" encoding="UTF-8"?>
<svg width="70px" height="70px" viewBox="0 0 70 70" version="1.1" xmlns="http://www.w3.org/2000/svg" xmlns:xlink="http://www.w3.org/1999/xlink">
    <!-- Generator: Sketch 63.1 (92452) - https://sketch.com -->
    <title>web/svg/ic_flag_ko</title>
    <desc>Created with Sketch.</desc>
    <g id="Symbols" stroke="none" stroke-width="1" fill="none" fill-rule="evenodd">
        <g id="lang/J-K-L/Korean-ko">
            <g id="ko">
                <g id="flag-south-korea" transform="translate(1.000000, 1.000000)">
                    <circle id="bg" fill="#FFFFFF" cx="34" cy="34" r="34"></circle>
                    <path d="M21.8956686,24.5237506 L21.8956686,26.4654981 L10.2290019,26.4654981 L10.2290019,24.5237506 L21.8956686,24.5237506 Z M21.8956686,21.5849751 L21.8956686,23.5267226 L10.2290019,23.5267226 L10.2290019,21.5849751 L21.8956686,21.5849751 Z M21.8956686,18.6461995 L21.8956686,20.5879471 L10.2290019,20.5879471 L10.2290019,18.6461995 L21.8956686,18.6461995 Z" id="b" fill="#000000" fill-rule="nonzero" transform="translate(16.062335, 22.555849) rotate(-56.309933) translate(-16.062335, -22.555849) "></path>
                    <path d="M57.7587343,48.432461 L57.7587343,50.3742086 L46.0920677,50.3742086 L46.0920677,48.432461 L57.7587343,48.432461 Z M57.7587343,45.4936855 L57.7587343,47.4354331 L46.0920677,47.4354331 L46.0920677,45.4936855 L57.7587343,45.4936855 Z M57.7587343,42.55491 L57.7587343,44.4966576 L46.0920677,44.4966576 L46.0920677,42.55491 L57.7587343,42.55491 Z" id="b" fill="#000000" fill-rule="nonzero" transform="translate(51.925401, 46.464559) rotate(-56.309933) translate(-51.925401, -46.464559) "></path>
                    <polygon id="Shape" fill="#FFFFFF" fill-rule="nonzero" transform="translate(51.933479, 46.452442) rotate(-56.309933) translate(-51.933479, -46.452442) " points="52.4043529 41.5544829 52.4043529 51.3504013 51.4334791 51.3504013 51.4334791 41.5544829"></polygon>
                    <ellipse id="Oval" fill="#CD2E3A" fill-rule="nonzero" transform="translate(33.993868, 34.510204) rotate(-56.309933) translate(-33.993868, -34.510204) " cx="33.9938681" cy="34.5102041" rx="11.6666667" ry="11.755102"></ellipse>
                    <path d="M35.2926592,25.1819154 C32.0709982,25.1819154 29.4593259,27.8133846 29.4593259,31.0594664 C29.4593259,34.3055482 32.0709982,36.9370174 35.2926592,36.9370174 C38.5143202,36.9370174 41.1259925,39.5684867 41.1259925,42.8145685 C41.1259925,46.0606503 38.5143202,48.6921195 35.2926592,48.6921195 C28.8493371,48.6921195 23.6259925,43.429181 23.6259925,36.9370174 C23.6259925,30.4448539 28.8493371,25.1819154 35.2926592,25.1819154 Z" id="Shape" fill="#0047A0" fill-rule="nonzero" transform="translate(32.375993, 36.937017) rotate(-56.309933) translate(-32.375993, -36.937017) "></path>
                    <path d="M21.8956686,48.432461 L21.8956686,50.3742086 L10.2290019,50.3742086 L10.2290019,48.432461 L21.8956686,48.432461 Z M21.8956686,45.4936855 L21.8956686,47.4354331 L10.2290019,47.4354331 L10.2290019,45.4936855 L21.8956686,45.4936855 Z M21.8956686,42.55491 L21.8956686,44.4966576 L10.2290019,44.4966576 L10.2290019,42.55491 L21.8956686,42.55491 Z" id="b" fill="#000000" fill-rule="nonzero" transform="translate(16.062335, 46.464559) rotate(-123.690067) translate(-16.062335, -46.464559) "></path>
                    <path d="M57.7587343,24.5237506 L57.7587343,26.4654981 L46.0920677,26.4654981 L46.0920677,24.5237506 L57.7587343,24.5237506 Z M57.7587343,21.5849751 L57.7587343,23.5267226 L46.0920677,23.5267226 L46.0920677,21.5849751 L57.7587343,21.5849751 Z M57.7587343,18.6461995 L57.7587343,20.5879471 L46.0920677,20.5879471 L46.0920677,18.6461995 L57.7587343,18.6461995 Z" id="b" fill="#000000" fill-rule="nonzero" transform="translate(51.925401, 22.555849) rotate(-123.690067) translate(-51.925401, -22.555849) "></path>
                    <path d="M35.6792683,55.2340376 L35.6792683,58.1728131 L34.7083945,58.1728131 L34.7083945,55.2340376 L35.6792683,55.2340376 Z M35.6792683,48.8666906 L35.6792683,52.2952621 L34.7083945,52.2952621 L34.7083945,48.8666906 L35.6792683,48.8666906 Z M35.6792683,9.19322125 L35.6792683,12.1319968 L34.7083945,12.1319968 L34.7083945,9.19322125 L35.6792683,9.19322125 Z" id="Shape" fill="#FFFFFF" fill-rule="nonzero" transform="translate(35.208394, 33.683017) rotate(-123.690067) translate(-35.208394, -33.683017) "></path>
                </g>
                <g id="border" fill="#C5C5C2">
                    <path d="M35,0 C54.3299662,0 70,15.6700338 70,35 C70,54.3299662 54.3299662,70 35,70 C15.6700338,70 0,54.3299662 0,35 C0,15.6700338 15.6700338,0 35,0 Z M35,2 C16.7746033,2 2,16.7746033 2,35 C2,53.2253967 16.7746033,68 35,68 C53.2253967,68 68,53.2253967 68,35 C68,16.7746033 53.2253967,2 35,2 Z"></path>
                </g>
            </g>
        </g>
    </g>
</svg>